<svg width="48" height="38" viewBox="0 0 48 38" fill="none" xmlns="http://www.w3.org/2000/svg">
<path fill-rule="evenodd" clip-rule="evenodd" d="M45.9167 37.6667C45.9167 37.6667 49 37.6667 49 34.5556C49 31.4445 45.9167 22.1112 33.5833 22.1112C21.25 22.1112 18.1667 31.4445 18.1667 34.5556C18.1667 37.6667 21.25 37.6667 21.25 37.6667H45.9167ZM21.3178 34.5556H45.8488C45.8633 34.5539 45.8777 34.5518 45.892 34.5494L45.9167 34.5432C45.9105 33.7218 45.4017 31.3387 43.5733 29.192C41.8713 27.1792 38.8805 25.2223 33.5833 25.2223C28.2892 25.2223 25.2984 27.1823 23.5933 29.192C21.7649 31.3387 21.2531 33.7249 21.25 34.5432C21.2726 34.5475 21.2952 34.5517 21.3178 34.5556V34.5556ZM33.5833 15.8889C35.2188 15.8889 36.7873 15.2334 37.9438 14.0665C39.1003 12.8996 39.75 11.3169 39.75 9.66671C39.75 8.01647 39.1003 6.43382 37.9438 5.26693C36.7873 4.10004 35.2188 3.44448 33.5833 3.44448C31.9478 3.44448 30.3793 4.10004 29.2228 5.26693C28.0664 6.43382 27.4167 8.01647 27.4167 9.66671C27.4167 11.3169 28.0664 12.8996 29.2228 14.0665C30.3793 15.2334 31.9478 15.8889 33.5833 15.8889ZM42.8333 9.66671C42.8333 10.8924 42.5941 12.106 42.1292 13.2384C41.6644 14.3708 40.983 15.3997 40.1241 16.2664C39.2651 17.133 38.2454 17.8205 37.1232 18.2896C36.0009 18.7586 34.7981 19 33.5833 19C32.3686 19 31.1658 18.7586 30.0435 18.2896C28.9212 17.8205 27.9015 17.133 27.0426 16.2664C26.1836 15.3997 25.5023 14.3708 25.0374 13.2384C24.5726 12.106 24.3333 10.8924 24.3333 9.66671C24.3333 7.19135 25.3079 4.81738 27.0426 3.06704C28.7773 1.3167 31.1301 0.333374 33.5833 0.333374C36.0366 0.333374 38.3894 1.3167 40.1241 3.06704C41.8588 4.81738 42.8333 7.19135 42.8333 9.66671V9.66671ZM21.0527 22.9823C19.8193 22.5904 18.5479 22.3328 17.2602 22.2138C16.5366 22.1444 15.8102 22.1101 15.0833 22.1112C2.75 22.1112 -0.333336 31.4445 -0.333336 34.5556C-0.333336 36.6307 0.693414 37.6667 2.75 37.6667H15.7493C15.2922 36.6955 15.0643 35.6306 15.0833 34.5556C15.0833 31.4134 16.2457 28.2027 18.4442 25.5209C19.1934 24.6063 20.066 23.7507 21.0527 22.9823ZM14.8367 25.2223C9.69366 25.2845 6.77375 27.2134 5.09333 29.192C3.25258 31.3512 2.75 33.7436 2.75 34.5556H12C12 31.3045 12.9959 28.0658 14.8367 25.2223ZM4.29166 11.2223C4.29166 8.74691 5.26622 6.37294 7.00093 4.6226C8.73564 2.87226 11.0884 1.88893 13.5417 1.88893C15.9949 1.88893 18.3477 2.87226 20.0824 4.6226C21.8171 6.37294 22.7917 8.74691 22.7917 11.2223C22.7917 13.6976 21.8171 16.0716 20.0824 17.8219C18.3477 19.5723 15.9949 20.5556 13.5417 20.5556C11.0884 20.5556 8.73564 19.5723 7.00093 17.8219C5.26622 16.0716 4.29166 13.6976 4.29166 11.2223V11.2223ZM13.5417 5.00004C11.9062 5.00004 10.3376 5.65559 9.18117 6.82249C8.0247 7.98938 7.375 9.57203 7.375 11.2223C7.375 12.8725 8.0247 14.4551 9.18117 15.622C10.3376 16.7889 11.9062 17.4445 13.5417 17.4445C15.1772 17.4445 16.7457 16.7889 17.9022 15.622C19.0586 14.4551 19.7083 12.8725 19.7083 11.2223C19.7083 9.57203 19.0586 7.98938 17.9022 6.82249C16.7457 5.65559 15.1772 5.00004 13.5417 5.00004Z" fill="#23A6F0"/>
</svg>
